<svg width="40" height="40" viewBox="0 0 40 40" fill="none" xmlns="http://www.w3.org/2000/svg">
<circle cx="20" cy="20" r="20" fill="#E2E2F0"/>
<path d="M18.8353 12.9502C19.2524 11.8937 20.7476 11.8937 21.1647 12.9502L21.7445 14.4188C21.9844 15.0265 22.6512 15.3476 23.2759 15.1563L24.7856 14.6939C25.8717 14.3613 26.8039 15.5303 26.238 16.5151L25.4513 17.8841C25.1257 18.4505 25.2904 19.1721 25.8295 19.5412L27.1323 20.4332C28.0695 21.0749 27.7367 22.5327 26.6139 22.7042L25.0531 22.9427C24.4073 23.0413 23.9458 23.62 23.9934 24.2716L24.1082 25.8463C24.1908 26.9791 22.8437 27.6279 22.0095 26.857L20.8499 25.7854C20.3701 25.342 19.63 25.342 19.1502 25.7854L17.9906 26.857C17.1564 27.6279 15.8093 26.9791 15.8919 25.8463L16.0067 24.2716C16.0542 23.62 15.5928 23.0413 14.947 22.9427L13.3861 22.7042C12.2633 22.5327 11.9306 21.0749 12.8678 20.4332L14.1706 19.5412C14.7097 19.1721 14.8743 18.4505 14.5488 17.8841L13.7621 16.5151C13.1961 15.5303 14.1284 14.3613 15.2144 14.6939L16.7242 15.1563C17.3488 15.3476 18.0156 15.0265 18.2555 14.4188L18.8353 12.9502Z" fill="white"/>
</svg>
